<?xml version="1.0" encoding="UTF-8" standalone="no"?>
<!DOCTYPE svg PUBLIC "-//W3C//DTD SVG 1.1//EN"
 "http://www.w3.org/Graphics/SVG/1.1/DTD/svg11.dtd">
<!-- Generated by graphviz version 2.47.3 (20210619.1520)
 -->
<!-- Pages: 1 -->
<svg width="707pt" height="639pt"
 viewBox="0.00 0.00 707.09 639.00" xmlns="http://www.w3.org/2000/svg" xmlns:xlink="http://www.w3.org/1999/xlink">
<g id="graph0" class="graph" transform="scale(1 1) rotate(0) translate(4 635)">
<polygon fill="white" stroke="transparent" points="-4,4 -4,-635 703.09,-635 703.09,4 -4,4"/>
<!-- 0 -->
<g id="node1" class="node">
<title>0</title>
<ellipse fill="#b2dfee" stroke="#b2dfee" cx="359.05" cy="-613" rx="32.49" ry="18"/>
<text text-anchor="middle" x="359.05" y="-609.3" font-family="Times New Roman,serif" font-size="14.00">Script</text>
</g>
<!-- 1 -->
<g id="node2" class="node">
<title>1</title>
<ellipse fill="#b2dfee" stroke="#b2dfee" cx="248.05" cy="-526" rx="45.49" ry="18"/>
<text text-anchor="middle" x="248.05" y="-522.3" font-family="Times New Roman,serif" font-size="14.00">ExprStmt</text>
</g>
<!-- 0&#45;&gt;1 -->
<g id="edge1" class="edge">
<title>0&#45;&gt;1</title>
<path fill="none" stroke="black" d="M326.37,-611.72C299.98,-609.55 264.32,-601.8 246.05,-577 241.31,-570.58 240.23,-562.34 240.79,-554.4"/>
<polygon fill="black" stroke="black" points="244.28,-554.74 242.3,-544.33 237.36,-553.7 244.28,-554.74"/>
</g>
<!-- 0&#45;&gt;1 -->
<g id="edge19" class="edge">
<title>0&#45;&gt;1</title>
<path fill="none" stroke="purple" d="M328.2,-607.25C308.1,-602.67 282.64,-593.83 266.05,-577 259.88,-570.74 255.81,-562.22 253.13,-553.98"/>
<polygon fill="purple" stroke="purple" points="256.48,-552.99 250.5,-544.24 249.73,-554.81 256.48,-552.99"/>
<text text-anchor="middle" x="296.05" y="-565.8" font-family="Times New Roman,serif" font-size="14.00" fill="purple">UNCOND</text>
</g>
<!-- 3 -->
<g id="node4" class="node">
<title>3</title>
<ellipse fill="#b2dfee" stroke="#b2dfee" cx="303.05" cy="-439" rx="45.49" ry="18"/>
<text text-anchor="middle" x="303.05" y="-435.3" font-family="Times New Roman,serif" font-size="14.00">ExprStmt</text>
</g>
<!-- 0&#45;&gt;3 -->
<g id="edge3" class="edge">
<title>0&#45;&gt;3</title>
<path fill="none" stroke="black" d="M356.87,-594.95C353.06,-568.44 343.85,-516.08 326.05,-475 324.61,-471.7 322.88,-468.36 321.01,-465.13"/>
<polygon fill="black" stroke="black" points="323.81,-463.02 315.52,-456.42 317.88,-466.75 323.81,-463.02"/>
</g>
<!-- 6 -->
<g id="node7" class="node">
<title>6</title>
<ellipse fill="#b2dfee" stroke="#b2dfee" cx="328.05" cy="-352" rx="45.49" ry="18"/>
<text text-anchor="middle" x="328.05" y="-348.3" font-family="Times New Roman,serif" font-size="14.00">ExprStmt</text>
</g>
<!-- 0&#45;&gt;6 -->
<g id="edge6" class="edge">
<title>0&#45;&gt;6</title>
<path fill="none" stroke="black" d="M363.93,-595.11C374.14,-556.55 394.4,-459.84 364.05,-388 362.15,-383.52 359.37,-379.33 356.18,-375.51"/>
<polygon fill="black" stroke="black" points="358.66,-373.04 349.22,-368.24 353.61,-377.88 358.66,-373.04"/>
</g>
<!-- 13 -->
<g id="node14" class="node">
<title>13</title>
<ellipse fill="#b2dfee" stroke="#b2dfee" cx="416.05" cy="-265" rx="45.49" ry="18"/>
<text text-anchor="middle" x="416.05" y="-261.3" font-family="Times New Roman,serif" font-size="14.00">ExprStmt</text>
</g>
<!-- 0&#45;&gt;13 -->
<g id="edge13" class="edge">
<title>0&#45;&gt;13</title>
<path fill="none" stroke="black" d="M376.46,-597.68C393.22,-582.18 416.05,-555.78 416.05,-527 416.05,-527 416.05,-527 416.05,-351 416.05,-331.75 416.05,-310.05 416.05,-293.4"/>
<polygon fill="black" stroke="black" points="419.55,-293.26 416.05,-283.26 412.55,-293.26 419.55,-293.26"/>
</g>
<!-- 17 -->
<g id="node18" class="node">
<title>17</title>
<ellipse fill="#b2dfee" stroke="#b2dfee" cx="512.05" cy="-178" rx="45.49" ry="18"/>
<text text-anchor="middle" x="512.05" y="-174.3" font-family="Times New Roman,serif" font-size="14.00">ExprStmt</text>
</g>
<!-- 0&#45;&gt;17 -->
<g id="edge17" class="edge">
<title>0&#45;&gt;17</title>
<path fill="none" stroke="black" d="M390.54,-608.48C435.06,-601.56 511.05,-581.72 511.05,-527 511.05,-527 511.05,-527 511.05,-264 511.05,-244.75 511.31,-223.05 511.56,-206.4"/>
<polygon fill="black" stroke="black" points="515.06,-206.31 511.72,-196.26 508.06,-206.2 515.06,-206.31"/>
</g>
<!-- 2 -->
<g id="node3" class="node">
<title>2</title>
<ellipse fill="#b2dfee" stroke="#b2dfee" cx="208.05" cy="-439" rx="31.4" ry="18"/>
<text text-anchor="middle" x="208.05" y="-435.3" font-family="Times New Roman,serif" font-size="14.00">Str(a)</text>
</g>
<!-- 1&#45;&gt;2 -->
<g id="edge2" class="edge">
<title>1&#45;&gt;2</title>
<path fill="none" stroke="black" d="M240.14,-508.21C234.46,-496.14 226.7,-479.64 220.23,-465.89"/>
<polygon fill="black" stroke="black" points="223.22,-464.03 215.8,-456.47 216.89,-467.01 223.22,-464.03"/>
</g>
<!-- 1&#45;&gt;3 -->
<g id="edge20" class="edge">
<title>1&#45;&gt;3</title>
<path fill="none" stroke="purple" d="M252.06,-507.88C254.94,-497.77 259.48,-485.04 266.05,-475 268.88,-470.67 272.35,-466.49 276.02,-462.62"/>
<polygon fill="purple" stroke="purple" points="278.49,-465.09 283.2,-455.6 273.6,-460.09 278.49,-465.09"/>
<text text-anchor="middle" x="296.05" y="-478.8" font-family="Times New Roman,serif" font-size="14.00" fill="purple">UNCOND</text>
</g>
<!-- 4 -->
<g id="node5" class="node">
<title>4</title>
<ellipse fill="#b2dfee" stroke="#b2dfee" cx="191.05" cy="-352" rx="51.99" ry="18"/>
<text text-anchor="middle" x="191.05" y="-348.3" font-family="Times New Roman,serif" font-size="14.00">ArrowExpr</text>
</g>
<!-- 3&#45;&gt;4 -->
<g id="edge4" class="edge">
<title>3&#45;&gt;4</title>
<path fill="none" stroke="black" d="M283.02,-422.8C265.4,-409.43 239.55,-389.81 219.73,-374.77"/>
<polygon fill="black" stroke="black" points="221.73,-371.9 211.65,-368.64 217.5,-377.47 221.73,-371.9"/>
</g>
<!-- 3&#45;&gt;6 -->
<g id="edge21" class="edge">
<title>3&#45;&gt;6</title>
<path fill="none" stroke="purple" d="M301,-420.94C300.4,-411.08 300.65,-398.58 304.05,-388 305.14,-384.6 306.68,-381.23 308.45,-378.01"/>
<polygon fill="purple" stroke="purple" points="311.52,-379.71 313.92,-369.39 305.61,-375.96 311.52,-379.71"/>
<text text-anchor="middle" x="334.05" y="-391.8" font-family="Times New Roman,serif" font-size="14.00" fill="purple">UNCOND</text>
</g>
<!-- 5 -->
<g id="node6" class="node">
<title>5</title>
<ellipse fill="#b2dfee" stroke="#b2dfee" cx="181.05" cy="-265" rx="50.09" ry="18"/>
<text text-anchor="middle" x="181.05" y="-261.3" font-family="Times New Roman,serif" font-size="14.00">Number(1)</text>
</g>
<!-- 4&#45;&gt;5 -->
<g id="edge5" class="edge">
<title>4&#45;&gt;5</title>
<path fill="none" stroke="black" d="M189.02,-333.8C187.65,-322.16 185.82,-306.55 184.25,-293.24"/>
<polygon fill="black" stroke="black" points="187.71,-292.7 183.07,-283.18 180.76,-293.52 187.71,-292.7"/>
</g>
<!-- 7 -->
<g id="node8" class="node">
<title>7</title>
<ellipse fill="#b2dfee" stroke="#b2dfee" cx="301.05" cy="-265" rx="51.99" ry="18"/>
<text text-anchor="middle" x="301.05" y="-261.3" font-family="Times New Roman,serif" font-size="14.00">ArrowExpr</text>
</g>
<!-- 6&#45;&gt;7 -->
<g id="edge7" class="edge">
<title>6&#45;&gt;7</title>
<path fill="none" stroke="black" d="M322.58,-333.8C318.85,-322.05 313.83,-306.24 309.57,-292.84"/>
<polygon fill="black" stroke="black" points="312.86,-291.65 306.5,-283.18 306.19,-293.77 312.86,-291.65"/>
</g>
<!-- 6&#45;&gt;13 -->
<g id="edge22" class="edge">
<title>6&#45;&gt;13</title>
<path fill="none" stroke="purple" d="M329.32,-333.57C330.89,-323.1 334.37,-310.09 342.05,-301 349.56,-292.1 359.85,-285.31 370.37,-280.19"/>
<polygon fill="purple" stroke="purple" points="371.87,-283.35 379.61,-276.11 369.05,-276.95 371.87,-283.35"/>
<text text-anchor="middle" x="372.05" y="-304.8" font-family="Times New Roman,serif" font-size="14.00" fill="purple">UNCOND</text>
</g>
<!-- 8 -->
<g id="node9" class="node">
<title>8</title>
<ellipse fill="#b2dfee" stroke="#b2dfee" cx="249.05" cy="-178" rx="48.99" ry="18"/>
<text text-anchor="middle" x="249.05" y="-174.3" font-family="Times New Roman,serif" font-size="14.00">ParenExpr</text>
</g>
<!-- 7&#45;&gt;8 -->
<g id="edge8" class="edge">
<title>7&#45;&gt;8</title>
<path fill="none" stroke="black" d="M290.77,-247.21C283.29,-234.98 273.04,-218.21 264.56,-204.36"/>
<polygon fill="black" stroke="black" points="267.5,-202.46 259.3,-195.76 261.53,-206.12 267.5,-202.46"/>
</g>
<!-- 9 -->
<g id="node10" class="node">
<title>9</title>
<ellipse fill="#b2dfee" stroke="#b2dfee" cx="183.05" cy="-91" rx="42.49" ry="18"/>
<text text-anchor="middle" x="183.05" y="-87.3" font-family="Times New Roman,serif" font-size="14.00">SeqExpr</text>
</g>
<!-- 8&#45;&gt;9 -->
<g id="edge9" class="edge">
<title>8&#45;&gt;9</title>
<path fill="none" stroke="black" d="M236.32,-160.61C226.55,-148.03 212.91,-130.46 201.88,-116.25"/>
<polygon fill="black" stroke="black" points="204.63,-114.09 195.73,-108.34 199.1,-118.38 204.63,-114.09"/>
</g>
<!-- 10 -->
<g id="node11" class="node">
<title>10</title>
<ellipse fill="#b2dfee" stroke="#b2dfee" cx="50.05" cy="-18" rx="50.09" ry="18"/>
<text text-anchor="middle" x="50.05" y="-14.3" font-family="Times New Roman,serif" font-size="14.00">Number(1)</text>
</g>
<!-- 9&#45;&gt;10 -->
<g id="edge10" class="edge">
<title>9&#45;&gt;10</title>
<path fill="none" stroke="black" d="M157.72,-76.48C137.45,-65.66 108.76,-50.35 86.1,-38.25"/>
<polygon fill="black" stroke="black" points="87.58,-35.07 77.11,-33.45 84.28,-41.24 87.58,-35.07"/>
</g>
<!-- 11 -->
<g id="node12" class="node">
<title>11</title>
<ellipse fill="#b2dfee" stroke="#b2dfee" cx="168.05" cy="-18" rx="50.09" ry="18"/>
<text text-anchor="middle" x="168.05" y="-14.3" font-family="Times New Roman,serif" font-size="14.00">Number(2)</text>
</g>
<!-- 9&#45;&gt;11 -->
<g id="edge11" class="edge">
<title>9&#45;&gt;11</title>
<path fill="none" stroke="black" d="M179.41,-72.81C177.72,-64.79 175.66,-55.05 173.76,-46.07"/>
<polygon fill="black" stroke="black" points="177.13,-45.09 171.64,-36.03 170.29,-46.54 177.13,-45.09"/>
</g>
<!-- 12 -->
<g id="node13" class="node">
<title>12</title>
<ellipse fill="#b2dfee" stroke="#b2dfee" cx="286.05" cy="-18" rx="50.09" ry="18"/>
<text text-anchor="middle" x="286.05" y="-14.3" font-family="Times New Roman,serif" font-size="14.00">Number(3)</text>
</g>
<!-- 9&#45;&gt;12 -->
<g id="edge12" class="edge">
<title>9&#45;&gt;12</title>
<path fill="none" stroke="black" d="M204.39,-75.29C219.24,-65.05 239.26,-51.25 255.76,-39.88"/>
<polygon fill="black" stroke="black" points="257.77,-42.74 264.02,-34.18 253.8,-36.98 257.77,-42.74"/>
</g>
<!-- 14 -->
<g id="node15" class="node">
<title>14</title>
<ellipse fill="#b2dfee" stroke="#b2dfee" cx="397.05" cy="-178" rx="51.99" ry="18"/>
<text text-anchor="middle" x="397.05" y="-174.3" font-family="Times New Roman,serif" font-size="14.00">ArrowExpr</text>
</g>
<!-- 13&#45;&gt;14 -->
<g id="edge14" class="edge">
<title>13&#45;&gt;14</title>
<path fill="none" stroke="black" d="M412.2,-246.8C409.6,-235.16 406.11,-219.55 403.13,-206.24"/>
<polygon fill="black" stroke="black" points="406.48,-205.17 400.88,-196.18 399.65,-206.7 406.48,-205.17"/>
</g>
<!-- 13&#45;&gt;17 -->
<g id="edge23" class="edge">
<title>13&#45;&gt;17</title>
<path fill="none" stroke="purple" d="M419.85,-246.95C422.96,-236.37 428.3,-223.09 437.05,-214 445.37,-205.35 456.24,-198.62 467.12,-193.47"/>
<polygon fill="purple" stroke="purple" points="468.83,-196.54 476.61,-189.35 466.05,-190.12 468.83,-196.54"/>
<text text-anchor="middle" x="467.05" y="-217.8" font-family="Times New Roman,serif" font-size="14.00" fill="purple">UNCOND</text>
</g>
<!-- 15 -->
<g id="node16" class="node">
<title>15</title>
<ellipse fill="#b2dfee" stroke="#b2dfee" cx="397.05" cy="-91" rx="51.99" ry="18"/>
<text text-anchor="middle" x="397.05" y="-87.3" font-family="Times New Roman,serif" font-size="14.00">ArrowExpr</text>
</g>
<!-- 14&#45;&gt;15 -->
<g id="edge15" class="edge">
<title>14&#45;&gt;15</title>
<path fill="none" stroke="black" d="M397.05,-159.8C397.05,-148.16 397.05,-132.55 397.05,-119.24"/>
<polygon fill="black" stroke="black" points="400.55,-119.18 397.05,-109.18 393.55,-119.18 400.55,-119.18"/>
</g>
<!-- 16 -->
<g id="node17" class="node">
<title>16</title>
<ellipse fill="#b2dfee" stroke="#b2dfee" cx="404.05" cy="-18" rx="50.09" ry="18"/>
<text text-anchor="middle" x="404.05" y="-14.3" font-family="Times New Roman,serif" font-size="14.00">Number(2)</text>
</g>
<!-- 15&#45;&gt;16 -->
<g id="edge16" class="edge">
<title>15&#45;&gt;16</title>
<path fill="none" stroke="black" d="M398.74,-72.81C399.53,-64.79 400.49,-55.05 401.38,-46.07"/>
<polygon fill="black" stroke="black" points="404.87,-46.32 402.37,-36.03 397.9,-45.64 404.87,-46.32"/>
</g>
<!-- 18 -->
<g id="node19" class="node">
<title>18</title>
<ellipse fill="#b2dfee" stroke="#b2dfee" cx="511.05" cy="-91" rx="44.39" ry="18"/>
<text text-anchor="middle" x="511.05" y="-87.3" font-family="Times New Roman,serif" font-size="14.00">Str(hello)</text>
</g>
<!-- 17&#45;&gt;18 -->
<g id="edge18" class="edge">
<title>17&#45;&gt;18</title>
<path fill="none" stroke="black" d="M511.84,-159.8C511.71,-148.16 511.52,-132.55 511.37,-119.24"/>
<polygon fill="black" stroke="black" points="514.87,-119.13 511.25,-109.18 507.87,-119.22 514.87,-119.13"/>
</g>
<!-- 19 -->
<g id="node20" class="node">
<title>19</title>
<ellipse fill="#b2dfee" stroke="#b2dfee" cx="636.05" cy="-91" rx="63.09" ry="18"/>
<text text-anchor="middle" x="636.05" y="-87.3" font-family="Times New Roman,serif" font-size="14.00">implicit_return</text>
</g>
<!-- 17&#45;&gt;19 -->
<g id="edge24" class="edge">
<title>17&#45;&gt;19</title>
<path fill="none" stroke="purple" d="M533.93,-162C553.45,-148.62 582.26,-128.87 604.31,-113.75"/>
<polygon fill="purple" stroke="purple" points="606.43,-116.55 612.7,-108.01 602.47,-110.77 606.43,-116.55"/>
<text text-anchor="middle" x="611.05" y="-130.8" font-family="Times New Roman,serif" font-size="14.00" fill="purple">UNCOND</text>
</g>
</g>
</svg>
