<?xml version="1.0" encoding="UTF-8" standalone="no"?>
<!DOCTYPE svg PUBLIC "-//W3C//DTD SVG 1.1//EN"
 "http://www.w3.org/Graphics/SVG/1.1/DTD/svg11.dtd">
<!-- Generated by graphviz version 2.47.3 (20210619.1520)
 -->
<!-- Title: AST Pages: 1 -->
<svg width="1054pt" height="914pt"
 viewBox="0.00 0.00 1053.64 914.00" xmlns="http://www.w3.org/2000/svg" xmlns:xlink="http://www.w3.org/1999/xlink">
<g id="graph0" class="graph" transform="scale(1 1) rotate(0) translate(4 910)">
<title>AST</title>
<polygon fill="white" stroke="transparent" points="-4,4 -4,-910 1049.64,-910 1049.64,4 -4,4"/>
<!-- node0 -->
<g id="node1" class="node">
<title>node0</title>
<ellipse fill="#b2dfee" stroke="#b2dfee" cx="413.4" cy="-888" rx="36.29" ry="18"/>
<text text-anchor="middle" x="413.4" y="-884.3" font-family="Times New Roman,serif" font-size="14.00">ROOT</text>
</g>
<!-- node1 -->
<g id="node2" class="node">
<title>node1</title>
<ellipse fill="#b2dfee" stroke="#b2dfee" cx="397.4" cy="-801" rx="42.79" ry="18"/>
<text text-anchor="middle" x="397.4" y="-797.3" font-family="Times New Roman,serif" font-size="14.00">SCRIPT</text>
</g>
<!-- node0&#45;&gt;node1 -->
<g id="edge1" class="edge">
<title>node0&#45;&gt;node1</title>
<path fill="none" stroke="black" d="M410.16,-869.8C407.97,-858.16 405.03,-842.55 402.52,-829.24"/>
<polygon fill="black" stroke="black" points="405.92,-828.36 400.63,-819.18 399.04,-829.65 405.92,-828.36"/>
</g>
<!-- node0&#45;&gt;node1 -->
<g id="edge43" class="edge">
<title>node0&#45;&gt;node1</title>
<path fill="none" stroke="purple" d="M412.55,-869.74C411.85,-860.05 410.6,-847.77 408.4,-837 407.84,-834.29 407.16,-831.48 406.4,-828.7"/>
<polygon fill="purple" stroke="purple" points="409.69,-827.49 403.48,-818.91 402.99,-829.49 409.69,-827.49"/>
<text text-anchor="middle" x="441.4" y="-840.8" font-family="Times New Roman,serif" font-size="14.00" fill="purple">UNCOND</text>
</g>
<!-- node2 -->
<g id="node3" class="node">
<title>node2</title>
<ellipse fill="#b2dfee" stroke="#b2dfee" cx="505.4" cy="-714" rx="42.79" ry="18"/>
<text text-anchor="middle" x="505.4" y="-710.3" font-family="Times New Roman,serif" font-size="14.00">SCRIPT</text>
</g>
<!-- node0&#45;&gt;node2 -->
<g id="edge3" class="edge">
<title>node0&#45;&gt;node2</title>
<path fill="none" stroke="black" d="M442.37,-876.81C454.28,-871.23 467.17,-863.14 475.4,-852 499.23,-819.73 504.81,-772.25 505.76,-742.5"/>
<polygon fill="black" stroke="black" points="509.27,-742.46 505.93,-732.41 502.27,-742.35 509.27,-742.46"/>
</g>
<!-- node1&#45;&gt;node2 -->
<g id="edge2" class="edge">
<title>node1&#45;&gt;node2</title>
<path fill="none" stroke="purple" d="M405.92,-782.99C411.89,-772.42 420.71,-759.14 431.4,-750 440.85,-741.92 452.48,-735.27 463.7,-730.02"/>
<polygon fill="purple" stroke="purple" points="465.23,-733.17 472.98,-725.94 462.41,-726.77 465.23,-733.17"/>
<text text-anchor="middle" x="461.4" y="-753.8" font-family="Times New Roman,serif" font-size="14.00" fill="purple">UNCOND</text>
</g>
<!-- node3 -->
<g id="node4" class="node">
<title>node3</title>
<ellipse fill="#b2dfee" stroke="#b2dfee" cx="252.4" cy="-627" rx="73.39" ry="18"/>
<text text-anchor="middle" x="252.4" y="-623.3" font-family="Times New Roman,serif" font-size="14.00">EXPR_RESULT</text>
</g>
<!-- node2&#45;&gt;node3 -->
<g id="edge4" class="edge">
<title>node2&#45;&gt;node3</title>
<path fill="none" stroke="black" d="M464.18,-708.62C428.82,-703.92 376.98,-694.75 334.4,-678 316.24,-670.86 297.54,-659.8 282.6,-649.89"/>
<polygon fill="black" stroke="black" points="284.51,-646.95 274.27,-644.23 280.57,-652.75 284.51,-646.95"/>
</g>
<!-- node2&#45;&gt;node3 -->
<g id="edge42" class="edge">
<title>node2&#45;&gt;node3</title>
<path fill="none" stroke="purple" d="M467.01,-705.86C438.26,-699.94 398.23,-690.49 364.4,-678 350.41,-672.84 347.92,-669.26 334.4,-663 322.65,-657.56 309.82,-651.94 297.88,-646.84"/>
<polygon fill="purple" stroke="purple" points="299.1,-643.55 288.53,-642.87 296.37,-650 299.1,-643.55"/>
<text text-anchor="middle" x="394.4" y="-666.8" font-family="Times New Roman,serif" font-size="14.00" fill="purple">UNCOND</text>
</g>
<!-- node5 -->
<g id="node6" class="node">
<title>node5</title>
<ellipse fill="#b2dfee" stroke="#b2dfee" cx="404.4" cy="-540" rx="73.39" ry="18"/>
<text text-anchor="middle" x="404.4" y="-536.3" font-family="Times New Roman,serif" font-size="14.00">EXPR_RESULT</text>
</g>
<!-- node2&#45;&gt;node5 -->
<g id="edge7" class="edge">
<title>node2&#45;&gt;node5</title>
<path fill="none" stroke="black" d="M495.53,-696.19C477.8,-666.01 440.47,-602.44 419.51,-566.73"/>
<polygon fill="black" stroke="black" points="422.39,-564.72 414.31,-557.87 416.35,-568.27 422.39,-564.72"/>
</g>
<!-- node10 -->
<g id="node12" class="node">
<title>node10</title>
<ellipse fill="#b2dfee" stroke="#b2dfee" cx="469.4" cy="-453" rx="73.39" ry="18"/>
<text text-anchor="middle" x="469.4" y="-449.3" font-family="Times New Roman,serif" font-size="14.00">EXPR_RESULT</text>
</g>
<!-- node2&#45;&gt;node10 -->
<g id="edge15" class="edge">
<title>node2&#45;&gt;node10</title>
<path fill="none" stroke="black" d="M507.14,-695.89C510.42,-657.69 515.24,-562.99 491.4,-489 490.38,-485.86 489.02,-482.71 487.48,-479.67"/>
<polygon fill="black" stroke="black" points="490.46,-477.85 482.42,-470.95 484.41,-481.36 490.46,-477.85"/>
</g>
<!-- node19 -->
<g id="node21" class="node">
<title>node19</title>
<ellipse fill="#b2dfee" stroke="#b2dfee" cx="589.4" cy="-366" rx="73.39" ry="18"/>
<text text-anchor="middle" x="589.4" y="-362.3" font-family="Times New Roman,serif" font-size="14.00">EXPR_RESULT</text>
</g>
<!-- node2&#45;&gt;node19 -->
<g id="edge27" class="edge">
<title>node2&#45;&gt;node19</title>
<path fill="none" stroke="black" d="M530.18,-699.27C552.69,-684.78 582.4,-659.66 582.4,-628 582.4,-628 582.4,-628 582.4,-452 582.4,-432.69 584.21,-410.99 586,-394.35"/>
<polygon fill="black" stroke="black" points="589.5,-394.55 587.14,-384.22 582.54,-393.76 589.5,-394.55"/>
</g>
<!-- node27 -->
<g id="node29" class="node">
<title>node27</title>
<ellipse fill="#b2dfee" stroke="#b2dfee" cx="944.4" cy="-279" rx="73.39" ry="18"/>
<text text-anchor="middle" x="944.4" y="-275.3" font-family="Times New Roman,serif" font-size="14.00">EXPR_RESULT</text>
</g>
<!-- node2&#45;&gt;node27 -->
<g id="edge39" class="edge">
<title>node2&#45;&gt;node27</title>
<path fill="none" stroke="black" d="M548.42,-712.75C650.8,-710.99 900.4,-699.37 900.4,-628 900.4,-628 900.4,-628 900.4,-365 900.4,-343.13 912.03,-321.28 923.33,-305.21"/>
<polygon fill="black" stroke="black" points="926.34,-307.02 929.5,-296.91 920.72,-302.85 926.34,-307.02"/>
</g>
<!-- node4 -->
<g id="node5" class="node">
<title>node4</title>
<ellipse fill="#b2dfee" stroke="#b2dfee" cx="244.4" cy="-540" rx="68.49" ry="18"/>
<text text-anchor="middle" x="244.4" y="-536.3" font-family="Times New Roman,serif" font-size="14.00">STRINGLIT(a)</text>
</g>
<!-- node3&#45;&gt;node4 -->
<g id="edge5" class="edge">
<title>node3&#45;&gt;node4</title>
<path fill="none" stroke="black" d="M250.78,-608.8C249.68,-597.16 248.21,-581.55 246.96,-568.24"/>
<polygon fill="black" stroke="black" points="250.44,-567.8 246.01,-558.18 243.47,-568.46 250.44,-567.8"/>
</g>
<!-- node3&#45;&gt;node5 -->
<g id="edge6" class="edge">
<title>node3&#45;&gt;node5</title>
<path fill="none" stroke="purple" d="M280.63,-610.21C305.05,-596.55 340.54,-576.71 367.26,-561.77"/>
<polygon fill="purple" stroke="purple" points="369.29,-564.64 376.31,-556.7 365.88,-558.53 369.29,-564.64"/>
<text text-anchor="middle" x="368.4" y="-579.8" font-family="Times New Roman,serif" font-size="14.00" fill="purple">UNCOND</text>
</g>
<!-- node6 -->
<g id="node7" class="node">
<title>node6</title>
<ellipse fill="#b2dfee" stroke="#b2dfee" cx="225.4" cy="-453" rx="57.39" ry="18"/>
<text text-anchor="middle" x="225.4" y="-449.3" font-family="Times New Roman,serif" font-size="14.00">FUNCTION</text>
</g>
<!-- node5&#45;&gt;node6 -->
<g id="edge8" class="edge">
<title>node5&#45;&gt;node6</title>
<path fill="none" stroke="black" d="M371.98,-523.61C341.9,-509.33 297.07,-488.03 264.91,-472.76"/>
<polygon fill="black" stroke="black" points="266.32,-469.56 255.78,-468.43 263.31,-475.88 266.32,-469.56"/>
</g>
<!-- node5&#45;&gt;node10 -->
<g id="edge14" class="edge">
<title>node5&#45;&gt;node10</title>
<path fill="none" stroke="purple" d="M411.86,-521.94C416.69,-511.86 423.53,-499.13 431.4,-489 434.55,-484.94 438.19,-480.95 441.95,-477.2"/>
<polygon fill="purple" stroke="purple" points="444.37,-479.73 449.22,-470.31 439.55,-474.65 444.37,-479.73"/>
<text text-anchor="middle" x="461.4" y="-492.8" font-family="Times New Roman,serif" font-size="14.00" fill="purple">UNCOND</text>
</g>
<!-- node7 -->
<g id="node8" class="node">
<title>node7</title>
<ellipse fill="#b2dfee" stroke="#b2dfee" cx="36.4" cy="-366" rx="36.29" ry="18"/>
<text text-anchor="middle" x="36.4" y="-362.3" font-family="Times New Roman,serif" font-size="14.00">NAME</text>
</g>
<!-- node6&#45;&gt;node7 -->
<g id="edge9" class="edge">
<title>node6&#45;&gt;node7</title>
<path fill="none" stroke="black" d="M193.76,-437.77C160.05,-422.61 106.79,-398.66 71.73,-382.89"/>
<polygon fill="black" stroke="black" points="72.91,-379.58 62.35,-378.67 70.03,-385.97 72.91,-379.58"/>
</g>
<!-- node8 -->
<g id="node9" class="node">
<title>node8</title>
<ellipse fill="#b2dfee" stroke="#b2dfee" cx="158.4" cy="-366" rx="67.69" ry="18"/>
<text text-anchor="middle" x="158.4" y="-362.3" font-family="Times New Roman,serif" font-size="14.00">PARAM_LIST</text>
</g>
<!-- node6&#45;&gt;node8 -->
<g id="edge10" class="edge">
<title>node6&#45;&gt;node8</title>
<path fill="none" stroke="black" d="M212.16,-435.21C202.43,-422.87 189.05,-405.89 178.08,-391.97"/>
<polygon fill="black" stroke="black" points="180.55,-389.45 171.61,-383.76 175.05,-393.78 180.55,-389.45"/>
</g>
<!-- node9 -->
<g id="node10" class="node">
<title>node9</title>
<ellipse fill="#b2dfee" stroke="#b2dfee" cx="292.4" cy="-366" rx="48.99" ry="18"/>
<text text-anchor="middle" x="292.4" y="-362.3" font-family="Times New Roman,serif" font-size="14.00">NUMBER</text>
</g>
<!-- node6&#45;&gt;node9 -->
<g id="edge11" class="edge">
<title>node6&#45;&gt;node9</title>
<path fill="none" stroke="black" d="M238.63,-435.21C248.42,-422.79 261.91,-405.67 272.93,-391.7"/>
<polygon fill="black" stroke="black" points="275.97,-393.49 279.42,-383.47 270.48,-389.16 275.97,-393.49"/>
</g>
<!-- node6&#45;&gt;node9 -->
<g id="edge13" class="edge">
<title>node6&#45;&gt;node9</title>
<path fill="none" stroke="purple" d="M251.67,-436.95C259.48,-431.47 267.51,-424.71 273.4,-417 278.63,-410.15 282.56,-401.69 285.45,-393.7"/>
<polygon fill="purple" stroke="purple" points="288.85,-394.56 288.58,-383.97 282.19,-392.42 288.85,-394.56"/>
<text text-anchor="middle" x="312.4" y="-405.8" font-family="Times New Roman,serif" font-size="14.00" fill="purple">UNCOND</text>
</g>
<!-- RETURN -->
<g id="node11" class="node">
<title>RETURN</title>
<ellipse fill="#b2dfee" stroke="#b2dfee" cx="131.4" cy="-18" rx="47.39" ry="18"/>
<text text-anchor="middle" x="131.4" y="-14.3" font-family="Times New Roman,serif" font-size="14.00">RETURN</text>
</g>
<!-- node9&#45;&gt;RETURN -->
<g id="edge12" class="edge">
<title>node9&#45;&gt;RETURN</title>
<path fill="none" stroke="purple" d="M256.66,-353.51C207.91,-337.49 125.63,-309.04 117.4,-297 64.07,-219.07 100.31,-98.14 120.45,-45.25"/>
<polygon fill="purple" stroke="purple" points="123.73,-46.49 124.12,-35.91 117.21,-43.94 123.73,-46.49"/>
<text text-anchor="middle" x="120.4" y="-188.3" font-family="Times New Roman,serif" font-size="14.00" fill="purple">UNCOND</text>
</g>
<!-- node11 -->
<g id="node13" class="node">
<title>node11</title>
<ellipse fill="#b2dfee" stroke="#b2dfee" cx="416.4" cy="-366" rx="57.39" ry="18"/>
<text text-anchor="middle" x="416.4" y="-362.3" font-family="Times New Roman,serif" font-size="14.00">FUNCTION</text>
</g>
<!-- node10&#45;&gt;node11 -->
<g id="edge16" class="edge">
<title>node10&#45;&gt;node11</title>
<path fill="none" stroke="black" d="M458.67,-434.8C451.08,-422.62 440.77,-406.09 432.23,-392.4"/>
<polygon fill="black" stroke="black" points="435.19,-390.52 426.93,-383.89 429.25,-394.22 435.19,-390.52"/>
</g>
<!-- node10&#45;&gt;node19 -->
<g id="edge26" class="edge">
<title>node10&#45;&gt;node19</title>
<path fill="none" stroke="purple" d="M479.57,-434.9C486.59,-424.3 496.73,-411.02 508.4,-402 517.12,-395.26 527.34,-389.54 537.52,-384.8"/>
<polygon fill="purple" stroke="purple" points="539.07,-387.95 546.83,-380.73 536.26,-381.53 539.07,-387.95"/>
<text text-anchor="middle" x="538.4" y="-405.8" font-family="Times New Roman,serif" font-size="14.00" fill="purple">UNCOND</text>
</g>
<!-- node12 -->
<g id="node14" class="node">
<title>node12</title>
<ellipse fill="#b2dfee" stroke="#b2dfee" cx="162.4" cy="-279" rx="36.29" ry="18"/>
<text text-anchor="middle" x="162.4" y="-275.3" font-family="Times New Roman,serif" font-size="14.00">NAME</text>
</g>
<!-- node11&#45;&gt;node12 -->
<g id="edge17" class="edge">
<title>node11&#45;&gt;node12</title>
<path fill="none" stroke="black" d="M376.92,-352.76C334.76,-339.55 266.08,-317.62 207.4,-297 204.98,-296.15 202.5,-295.26 200.01,-294.36"/>
<polygon fill="black" stroke="black" points="201,-290.99 190.41,-290.81 198.58,-297.56 201,-290.99"/>
</g>
<!-- node13 -->
<g id="node15" class="node">
<title>node13</title>
<ellipse fill="#b2dfee" stroke="#b2dfee" cx="284.4" cy="-279" rx="67.69" ry="18"/>
<text text-anchor="middle" x="284.4" y="-275.3" font-family="Times New Roman,serif" font-size="14.00">PARAM_LIST</text>
</g>
<!-- node11&#45;&gt;node13 -->
<g id="edge18" class="edge">
<title>node11&#45;&gt;node13</title>
<path fill="none" stroke="black" d="M392.49,-349.61C371.54,-336.12 340.88,-316.37 317.56,-301.36"/>
<polygon fill="black" stroke="black" points="319.32,-298.33 309.02,-295.85 315.53,-304.21 319.32,-298.33"/>
</g>
<!-- node14 -->
<g id="node16" class="node">
<title>node14</title>
<ellipse fill="#b2dfee" stroke="#b2dfee" cx="416.4" cy="-279" rx="46.29" ry="18"/>
<text text-anchor="middle" x="416.4" y="-275.3" font-family="Times New Roman,serif" font-size="14.00">COMMA</text>
</g>
<!-- node11&#45;&gt;node14 -->
<g id="edge19" class="edge">
<title>node11&#45;&gt;node14</title>
<path fill="none" stroke="black" d="M416.4,-347.8C416.4,-336.16 416.4,-320.55 416.4,-307.24"/>
<polygon fill="black" stroke="black" points="419.9,-307.18 416.4,-297.18 412.9,-307.18 419.9,-307.18"/>
</g>
<!-- node11&#45;&gt;node14 -->
<g id="edge25" class="edge">
<title>node11&#45;&gt;node14</title>
<path fill="none" stroke="purple" d="M424.72,-347.95C427.04,-342.36 429.23,-336.04 430.4,-330 431.87,-322.33 430.75,-314.13 428.61,-306.63"/>
<polygon fill="purple" stroke="purple" points="431.83,-305.24 425.22,-296.96 425.23,-307.55 431.83,-305.24"/>
<text text-anchor="middle" x="461.4" y="-318.8" font-family="Times New Roman,serif" font-size="14.00" fill="purple">UNCOND</text>
</g>
<!-- node14&#45;&gt;RETURN -->
<g id="edge24" class="edge">
<title>node14&#45;&gt;RETURN</title>
<path fill="none" stroke="purple" d="M382.47,-266.77C333.07,-250.2 245.97,-220.08 234.4,-210 182.54,-164.8 152.25,-86.9 139.15,-45.95"/>
<polygon fill="purple" stroke="purple" points="142.42,-44.66 136.12,-36.14 135.73,-46.73 142.42,-44.66"/>
<text text-anchor="middle" x="218.4" y="-144.8" font-family="Times New Roman,serif" font-size="14.00" fill="purple">UNCOND</text>
</g>
<!-- node15 -->
<g id="node17" class="node">
<title>node15</title>
<ellipse fill="#b2dfee" stroke="#b2dfee" cx="289.4" cy="-192" rx="46.29" ry="18"/>
<text text-anchor="middle" x="289.4" y="-188.3" font-family="Times New Roman,serif" font-size="14.00">COMMA</text>
</g>
<!-- node14&#45;&gt;node15 -->
<g id="edge20" class="edge">
<title>node14&#45;&gt;node15</title>
<path fill="none" stroke="black" d="M394.28,-263.19C373.73,-249.44 342.95,-228.85 320.05,-213.51"/>
<polygon fill="black" stroke="black" points="321.95,-210.57 311.69,-207.92 318.05,-216.39 321.95,-210.57"/>
</g>
<!-- node18 -->
<g id="node20" class="node">
<title>node18</title>
<ellipse fill="#b2dfee" stroke="#b2dfee" cx="402.4" cy="-192" rx="48.99" ry="18"/>
<text text-anchor="middle" x="402.4" y="-188.3" font-family="Times New Roman,serif" font-size="14.00">NUMBER</text>
</g>
<!-- node14&#45;&gt;node18 -->
<g id="edge23" class="edge">
<title>node14&#45;&gt;node18</title>
<path fill="none" stroke="black" d="M413.56,-260.8C411.65,-249.16 409.08,-233.55 406.88,-220.24"/>
<polygon fill="black" stroke="black" points="410.3,-219.47 405.23,-210.18 403.4,-220.61 410.3,-219.47"/>
</g>
<!-- node16 -->
<g id="node18" class="node">
<title>node16</title>
<ellipse fill="#b2dfee" stroke="#b2dfee" cx="273.4" cy="-105" rx="48.99" ry="18"/>
<text text-anchor="middle" x="273.4" y="-101.3" font-family="Times New Roman,serif" font-size="14.00">NUMBER</text>
</g>
<!-- node15&#45;&gt;node16 -->
<g id="edge21" class="edge">
<title>node15&#45;&gt;node16</title>
<path fill="none" stroke="black" d="M286.16,-173.8C283.97,-162.16 281.03,-146.55 278.52,-133.24"/>
<polygon fill="black" stroke="black" points="281.92,-132.36 276.63,-123.18 275.04,-133.65 281.92,-132.36"/>
</g>
<!-- node17 -->
<g id="node19" class="node">
<title>node17</title>
<ellipse fill="#b2dfee" stroke="#b2dfee" cx="388.4" cy="-105" rx="48.99" ry="18"/>
<text text-anchor="middle" x="388.4" y="-101.3" font-family="Times New Roman,serif" font-size="14.00">NUMBER</text>
</g>
<!-- node15&#45;&gt;node17 -->
<g id="edge22" class="edge">
<title>node15&#45;&gt;node17</title>
<path fill="none" stroke="black" d="M307.55,-175.41C322.81,-162.31 344.81,-143.42 362.01,-128.65"/>
<polygon fill="black" stroke="black" points="364.71,-130.95 370.02,-121.78 360.15,-125.64 364.71,-130.95"/>
</g>
<!-- node20 -->
<g id="node22" class="node">
<title>node20</title>
<ellipse fill="#b2dfee" stroke="#b2dfee" cx="614.4" cy="-279" rx="57.39" ry="18"/>
<text text-anchor="middle" x="614.4" y="-275.3" font-family="Times New Roman,serif" font-size="14.00">FUNCTION</text>
</g>
<!-- node19&#45;&gt;node20 -->
<g id="edge28" class="edge">
<title>node19&#45;&gt;node20</title>
<path fill="none" stroke="black" d="M594.46,-347.8C597.91,-336.05 602.56,-320.24 606.5,-306.84"/>
<polygon fill="black" stroke="black" points="609.88,-307.76 609.35,-297.18 603.17,-305.78 609.88,-307.76"/>
</g>
<!-- node19&#45;&gt;node27 -->
<g id="edge38" class="edge">
<title>node19&#45;&gt;node27</title>
<path fill="none" stroke="purple" d="M639.88,-352.91C704.2,-337.51 815.23,-310.93 883.97,-294.47"/>
<polygon fill="purple" stroke="purple" points="884.89,-297.85 893.8,-292.12 883.26,-291.04 884.89,-297.85"/>
<text text-anchor="middle" x="817.4" y="-318.8" font-family="Times New Roman,serif" font-size="14.00" fill="purple">UNCOND</text>
</g>
<!-- node21 -->
<g id="node23" class="node">
<title>node21</title>
<ellipse fill="#b2dfee" stroke="#b2dfee" cx="505.4" cy="-192" rx="36.29" ry="18"/>
<text text-anchor="middle" x="505.4" y="-188.3" font-family="Times New Roman,serif" font-size="14.00">NAME</text>
</g>
<!-- node20&#45;&gt;node21 -->
<g id="edge29" class="edge">
<title>node20&#45;&gt;node21</title>
<path fill="none" stroke="black" d="M593.89,-262.01C576.38,-248.36 551.07,-228.62 532,-213.75"/>
<polygon fill="black" stroke="black" points="534.03,-210.89 523.99,-207.5 529.72,-216.41 534.03,-210.89"/>
</g>
<!-- node22 -->
<g id="node24" class="node">
<title>node22</title>
<ellipse fill="#b2dfee" stroke="#b2dfee" cx="627.4" cy="-192" rx="67.69" ry="18"/>
<text text-anchor="middle" x="627.4" y="-188.3" font-family="Times New Roman,serif" font-size="14.00">PARAM_LIST</text>
</g>
<!-- node20&#45;&gt;node22 -->
<g id="edge30" class="edge">
<title>node20&#45;&gt;node22</title>
<path fill="none" stroke="black" d="M617.03,-260.8C618.81,-249.16 621.2,-233.55 623.23,-220.24"/>
<polygon fill="black" stroke="black" points="626.72,-220.59 624.77,-210.18 619.8,-219.53 626.72,-220.59"/>
</g>
<!-- node23 -->
<g id="node25" class="node">
<title>node23</title>
<ellipse fill="#b2dfee" stroke="#b2dfee" cx="770.4" cy="-192" rx="57.39" ry="18"/>
<text text-anchor="middle" x="770.4" y="-188.3" font-family="Times New Roman,serif" font-size="14.00">FUNCTION</text>
</g>
<!-- node20&#45;&gt;node23 -->
<g id="edge31" class="edge">
<title>node20&#45;&gt;node23</title>
<path fill="none" stroke="black" d="M641.93,-263C667.55,-249.04 705.9,-228.14 734.03,-212.82"/>
<polygon fill="black" stroke="black" points="736.03,-215.71 743.14,-207.85 732.69,-209.56 736.03,-215.71"/>
</g>
<!-- node20&#45;&gt;node23 -->
<g id="edge37" class="edge">
<title>node20&#45;&gt;node23</title>
<path fill="none" stroke="purple" d="M654.06,-265.84C670.73,-259.99 690.02,-252.23 706.4,-243 719.94,-235.37 733.68,-225.03 744.95,-215.74"/>
<polygon fill="purple" stroke="purple" points="747.29,-218.35 752.67,-209.22 742.78,-213 747.29,-218.35"/>
<text text-anchor="middle" x="758.4" y="-231.8" font-family="Times New Roman,serif" font-size="14.00" fill="purple">UNCOND</text>
</g>
<!-- node24 -->
<g id="node26" class="node">
<title>node24</title>
<ellipse fill="#b2dfee" stroke="#b2dfee" cx="648.4" cy="-105" rx="36.29" ry="18"/>
<text text-anchor="middle" x="648.4" y="-101.3" font-family="Times New Roman,serif" font-size="14.00">NAME</text>
</g>
<!-- node23&#45;&gt;node24 -->
<g id="edge32" class="edge">
<title>node23&#45;&gt;node24</title>
<path fill="none" stroke="black" d="M748.02,-175.41C728.07,-161.51 698.75,-141.08 677.08,-125.99"/>
<polygon fill="black" stroke="black" points="678.81,-122.93 668.61,-120.08 674.81,-128.67 678.81,-122.93"/>
</g>
<!-- node25 -->
<g id="node27" class="node">
<title>node25</title>
<ellipse fill="#b2dfee" stroke="#b2dfee" cx="770.4" cy="-105" rx="67.69" ry="18"/>
<text text-anchor="middle" x="770.4" y="-101.3" font-family="Times New Roman,serif" font-size="14.00">PARAM_LIST</text>
</g>
<!-- node23&#45;&gt;node25 -->
<g id="edge33" class="edge">
<title>node23&#45;&gt;node25</title>
<path fill="none" stroke="black" d="M770.4,-173.8C770.4,-162.16 770.4,-146.55 770.4,-133.24"/>
<polygon fill="black" stroke="black" points="773.9,-133.18 770.4,-123.18 766.9,-133.18 773.9,-133.18"/>
</g>
<!-- node26 -->
<g id="node28" class="node">
<title>node26</title>
<ellipse fill="#b2dfee" stroke="#b2dfee" cx="904.4" cy="-105" rx="48.99" ry="18"/>
<text text-anchor="middle" x="904.4" y="-101.3" font-family="Times New Roman,serif" font-size="14.00">NUMBER</text>
</g>
<!-- node23&#45;&gt;node26 -->
<g id="edge34" class="edge">
<title>node23&#45;&gt;node26</title>
<path fill="none" stroke="black" d="M794.66,-175.61C816.33,-161.86 848.23,-141.63 872.06,-126.51"/>
<polygon fill="black" stroke="black" points="874.19,-129.31 880.76,-120.99 870.44,-123.39 874.19,-129.31"/>
</g>
<!-- node23&#45;&gt;node26 -->
<g id="edge36" class="edge">
<title>node23&#45;&gt;node26</title>
<path fill="none" stroke="purple" d="M807.26,-178.23C821.61,-172.46 837.83,-164.93 851.4,-156 862.62,-148.61 873.66,-138.74 882.73,-129.73"/>
<polygon fill="purple" stroke="purple" points="885.38,-132.03 889.85,-122.42 880.36,-127.14 885.38,-132.03"/>
<text text-anchor="middle" x="899.4" y="-144.8" font-family="Times New Roman,serif" font-size="14.00" fill="purple">UNCOND</text>
</g>
<!-- node26&#45;&gt;RETURN -->
<g id="edge35" class="edge">
<title>node26&#45;&gt;RETURN</title>
<path fill="none" stroke="purple" d="M869.39,-92.39C862.18,-90.33 854.59,-88.4 847.4,-87 721.12,-62.42 334.25,-33.35 188.1,-22.95"/>
<polygon fill="purple" stroke="purple" points="188.23,-19.45 178,-22.23 187.73,-26.43 188.23,-19.45"/>
<text text-anchor="middle" x="742.4" y="-57.8" font-family="Times New Roman,serif" font-size="14.00" fill="purple">UNCOND</text>
</g>
<!-- node27&#45;&gt;RETURN -->
<g id="edge41" class="edge">
<title>node27&#45;&gt;RETURN</title>
<path fill="none" stroke="purple" d="M920.03,-261.83C891.84,-241.12 851.99,-204.26 874.4,-174 890.71,-151.97 910.36,-170.86 933.4,-156 961.35,-137.97 983.77,-112.49 962.4,-87 912.83,-27.86 369.28,-20.06 189.07,-19.11"/>
<polygon fill="purple" stroke="purple" points="189.01,-15.61 178.99,-19.06 188.97,-22.61 189.01,-15.61"/>
<text text-anchor="middle" x="982.4" y="-144.8" font-family="Times New Roman,serif" font-size="14.00" fill="purple">UNCOND</text>
</g>
<!-- node28 -->
<g id="node30" class="node">
<title>node28</title>
<ellipse fill="#b2dfee" stroke="#b2dfee" cx="964.4" cy="-192" rx="81.49" ry="18"/>
<text text-anchor="middle" x="964.4" y="-188.3" font-family="Times New Roman,serif" font-size="14.00">STRINGLIT(hello)</text>
</g>
<!-- node27&#45;&gt;node28 -->
<g id="edge40" class="edge">
<title>node27&#45;&gt;node28</title>
<path fill="none" stroke="black" d="M948.44,-260.8C951.18,-249.16 954.86,-233.55 957.99,-220.24"/>
<polygon fill="black" stroke="black" points="961.47,-220.71 960.36,-210.18 954.66,-219.11 961.47,-220.71"/>
</g>
</g>
</svg>
